# Blender v2.92.0 OBJ File: 'quarto.blend'
# www.blender.org
mtllib Ar.mtl
o Cubo.029_Cubo.031
v -1.603883 5.985629 7.649121
v -0.993832 5.990621 7.649118
v -1.609778 6.706038 7.649121
v -0.999727 6.711030 7.649118
v -1.603894 5.985629 5.107914
v -0.993843 5.990620 5.107912
v -1.609789 6.706038 5.107914
v -0.999738 6.711029 5.107912
vt 0.071800 0.904012
vt 0.916015 0.616245
vt 0.924416 0.885755
vt 0.077875 0.620725
vt 0.643476 0.010224
vt 0.375000 0.250000
vt 0.375000 0.000000
vt 0.641000 0.270000
vt 0.375000 0.500000
vt 0.597000 0.488000
vt 0.375000 0.750000
vt 0.585000 0.742000
vt 0.375000 1.000000
vt 0.125000 0.750000
vt 0.125000 0.500000
vt 0.643476 1.010224
vn 1.0000 0.0082 -0.0000
vn 0.0000 0.0000 1.0000
vn -0.0082 1.0000 -0.0000
vn -0.0000 -0.0000 -1.0000
vn 0.0082 -1.0000 0.0000
vn -1.0000 -0.0082 0.0000
usemtl Materiais.022
s off
f 4/1/1 6/2/1 8/3/1
f 4/1/1 2/4/1 6/2/1
usemtl Materiais.021
f 2/5/2 3/6/2 1/7/2
f 4/8/3 7/9/3 3/6/3
f 8/10/4 5/11/4 7/9/4
f 6/12/5 1/13/5 5/11/5
f 7/9/6 1/14/6 3/15/6
f 2/5/2 4/8/2 3/6/2
f 4/8/3 8/10/3 7/9/3
f 8/10/4 6/12/4 5/11/4
f 6/12/5 2/16/5 1/13/5
f 7/9/6 5/11/6 1/14/6
