# Blender v2.92.0 OBJ File: 'quarto.blend'
# www.blender.org
mtllib Cama.mtl
o Cube.011
v 14.821422 -0.122957 -3.031075
v 14.821422 0.863983 -3.031075
v 14.821423 -0.122957 5.196924
v 14.821423 0.863983 5.196924
v 11.190252 -0.122957 -3.031075
v 11.190252 0.863983 -3.031075
v 11.190253 -0.122957 5.196924
v 11.190253 0.863983 5.196924
vt 0.625000 0.000000
vt 0.375000 0.250000
vt 0.375000 0.000000
vt 0.625000 0.250000
vt 0.375000 0.500000
vt 0.625000 0.500000
vt 0.375000 0.750000
vt 0.625000 0.750000
vt 0.375000 1.000000
vt 0.125000 0.750000
vt 0.125000 0.500000
vt 0.875000 0.500000
vt 0.625000 1.000000
vt 0.875000 0.750000
vn 1.0000 0.0000 -0.0000
vn 0.0000 0.0000 1.0000
vn -1.0000 0.0000 0.0000
vn 0.0000 0.0000 -1.0000
vn 0.0000 -1.0000 -0.0000
vn 0.0000 1.0000 0.0000
usemtl Materiais.021
s off
f 2/1/1 3/2/1 1/3/1
f 4/4/2 7/5/2 3/2/2
f 8/6/3 5/7/3 7/5/3
f 6/8/4 1/9/4 5/7/4
f 7/5/5 1/10/5 3/11/5
f 4/12/6 6/8/6 8/6/6
f 2/1/1 4/4/1 3/2/1
f 4/4/2 8/6/2 7/5/2
f 8/6/3 6/8/3 5/7/3
f 6/8/4 2/13/4 1/9/4
f 7/5/5 5/7/5 1/10/5
f 4/12/6 2/14/6 6/8/6
o Cube.012
v 14.580296 0.584365 -2.836815
v 14.580296 0.764621 -2.936814
v 14.680296 0.764621 -2.836815
v 14.580296 1.137450 -2.936814
v 14.580296 1.317706 -2.836815
v 14.680296 1.137450 -2.836815
v 14.580297 0.584365 4.970684
v 14.680297 0.764621 4.970684
v 14.580297 0.764621 5.070684
v 14.580297 1.317706 4.970684
v 14.580297 1.137450 5.070684
v 14.680297 1.137450 4.970684
v 11.437496 0.584365 -2.836814
v 11.337497 0.764621 -2.836814
v 11.437496 0.764621 -2.936814
v 11.437496 1.317706 -2.836814
v 11.437496 1.137450 -2.936814
v 11.337497 1.137450 -2.836814
v 11.437498 0.584365 4.970685
v 11.437498 0.764621 5.070684
v 11.337498 0.764621 4.970685
v 11.437498 1.317706 4.970685
v 11.337498 1.137450 4.970685
v 11.437498 1.137450 5.070684
vt 0.358075 0.207244
vt 0.896395 0.692756
vt 0.339186 0.262250
vt 0.806351 0.645776
vt 0.426623 0.239966
vt 0.813247 0.630412
vt 0.942549 0.514143
vt 0.525283 0.400876
vt 0.670303 0.240007
vt 0.903195 0.666756
vt 0.349915 0.151947
vt 0.911892 0.644425
vt 0.573944 0.353718
vt 0.450412 0.538306
vt 0.440038 0.289117
vt 0.887263 0.719351
vt 0.887263 0.719351
vt 0.914125 0.706455
vt 0.915283 0.637750
vt 0.924416 0.611155
vt 0.933013 0.651448
vt 0.354120 0.141150
vt 0.342717 0.145639
vt 0.342717 0.145639
vt 0.638981 0.385355
vt 0.638981 0.385355
vt 0.573052 0.345023
vt 0.429957 0.232538
vt 0.421671 0.234965
vt 0.421671 0.234965
vt 0.367207 0.180649
vt 0.367207 0.180649
vt 0.340345 0.193546
vt 0.375000 0.492521
vt 0.375000 0.492521
vt 0.450903 0.546454
vt 0.803017 0.653204
vt 0.811303 0.650777
vt 0.811303 0.650777
vt 0.916098 0.633628
vt 0.910393 0.673064
vt 0.919090 0.650732
vt 0.337012 0.185076
vt 0.898990 0.677553
vt 0.341217 0.174279
vt 0.334019 0.167971
vt 0.375000 0.257479
vt 0.682414 0.679625
vt 0.607002 0.633840
vt 0.607894 0.642535
vt 0.816581 0.622985
vt 0.416394 0.262757
vt 0.419728 0.255329
vt 0.414776 0.250329
vt 0.330054 0.288845
vt 0.367521 0.503122
vt 0.132479 0.746878
vt 0.132479 0.503122
vt 0.824792 0.692538
vt 0.367521 0.746878
vn 0.0000 0.0000 -1.0000
vn -1.0000 0.0000 0.0000
vn 0.0000 1.0000 -0.0000
vn 1.0000 0.0000 -0.0000
vn 0.0000 0.0000 1.0000
vn 0.6583 -0.3652 -0.6583
vn 0.6583 0.3652 -0.6583
vn 0.6583 -0.3652 0.6583
vn 0.6583 0.3652 0.6583
vn -0.6583 -0.3652 -0.6583
vn -0.6583 0.3652 -0.6583
vn -0.6583 -0.3652 0.6583
vn -0.6583 0.3652 0.6583
vn 0.8744 -0.4851 -0.0000
vn 0.7071 0.0000 -0.7071
vn 0.8744 0.4851 -0.0000
vn 0.7071 0.0000 0.7071
vn 0.0000 -0.4851 0.8745
vn 0.0000 0.4851 0.8744
vn -0.7071 0.0000 0.7071
vn -0.8744 -0.4851 0.0000
vn -0.8744 0.4851 0.0000
vn -0.7071 0.0000 -0.7071
vn -0.0000 -0.4851 -0.8745
vn -0.0000 0.4851 -0.8745
vn 0.0000 -1.0000 0.0000
vn 0.8745 -0.4851 -0.0000
vn 0.8745 0.4851 -0.0000
vn 0.0000 -0.4851 0.8744
vn 0.0000 0.4851 0.8745
vn -0.8745 -0.4851 0.0000
vn -0.8745 0.4851 0.0000
usemtl Materiais.014
s off
f 25/15/7 10/16/7 23/17/7
f 31/18/8 22/19/8 29/20/8
f 18/21/9 24/22/9 30/23/9
f 14/24/10 16/25/10 11/26/10
f 19/27/11 28/28/11 17/29/11
f 9/30/12 10/31/12 11/32/12
f 12/33/13 13/34/13 14/35/13
f 15/36/14 16/37/14 17/38/14
f 18/39/15 19/40/15 20/41/15
f 21/42/16 22/43/16 23/44/16
f 24/45/17 25/46/17 26/47/17
f 27/48/18 28/49/18 29/50/18
f 30/51/19 31/52/19 32/53/19
f 9/54/20 16/25/20 15/36/20
f 12/55/21 11/26/21 10/56/21
f 18/57/22 14/24/22 13/58/22
f 17/38/23 20/59/23 19/60/23
f 15/61/24 28/28/24 27/48/24
f 30/62/25 19/27/25 18/39/25
f 29/50/26 32/63/26 31/64/26
f 27/65/27 22/19/27 21/42/27
f 24/66/28 31/18/28 30/51/28
f 23/44/29 26/67/29 25/68/29
f 21/69/30 10/16/30 9/30/30
f 13/34/31 25/15/31 24/45/31
f 27/70/32 9/71/32 15/72/32
f 25/15/7 12/33/7 10/16/7
f 31/18/8 26/67/8 22/19/8
f 18/21/9 13/73/9 24/22/9
f 14/24/10 20/59/10 16/25/10
f 19/27/11 32/63/11 28/28/11
f 9/54/33 11/26/33 16/25/33
f 12/55/21 14/24/21 11/26/21
f 18/57/34 20/59/34 14/24/34
f 17/38/23 16/25/23 20/59/23
f 15/61/35 17/29/35 28/28/35
f 30/62/36 32/63/36 19/27/36
f 29/50/26 28/28/26 32/63/26
f 27/65/37 29/20/37 22/19/37
f 24/66/38 26/67/38 31/18/38
f 23/44/29 22/19/29 26/67/29
f 21/69/30 23/17/30 10/16/30
f 13/34/31 12/33/31 25/15/31
f 27/70/32 21/74/32 9/71/32
o Cube.013
v 13.883309 1.317706 3.459922
v 13.883309 1.404062 3.373565
v 13.969666 1.404062 3.459922
v 13.883309 1.342999 3.398859
v 13.933167 1.354205 3.410064
v 13.944373 1.404062 3.398859
v 13.944373 1.342999 3.459922
v 13.883309 1.404062 3.373565
v 13.883309 1.490418 3.459922
v 13.969666 1.404062 3.459922
v 13.883309 1.465125 3.398859
v 13.933167 1.453920 3.410064
v 13.944373 1.465125 3.459922
v 13.944373 1.404062 3.398859
v 13.883310 1.317706 4.473636
v 13.969666 1.404062 4.473636
v 13.883310 1.404062 4.559992
v 13.944373 1.342999 4.473636
v 13.933167 1.354205 4.523493
v 13.944373 1.404062 4.534698
v 13.883310 1.342999 4.534698
v 13.883310 1.490418 4.473636
v 13.883310 1.404062 4.559992
v 13.969666 1.404062 4.473636
v 13.883310 1.465125 4.534698
v 13.933167 1.453920 4.523493
v 13.944373 1.404062 4.534698
v 13.944373 1.465125 4.473636
v 12.247267 1.317706 3.459922
v 12.160911 1.404062 3.459922
v 12.247267 1.404062 3.373566
v 12.186204 1.342999 3.459922
v 12.197410 1.354205 3.410064
v 12.186204 1.404062 3.398859
v 12.247267 1.342999 3.398859
v 12.247267 1.490418 3.459922
v 12.247267 1.404062 3.373566
v 12.160911 1.404062 3.459922
v 12.247267 1.465125 3.398859
v 12.197410 1.453920 3.410064
v 12.186204 1.404062 3.398859
v 12.186204 1.465125 3.459922
v 12.247268 1.317706 4.473636
v 12.247268 1.404062 4.559992
v 12.160912 1.404062 4.473636
v 12.247268 1.342999 4.534699
v 12.197410 1.354205 4.523494
v 12.186204 1.404062 4.534699
v 12.186204 1.342999 4.473636
v 12.247268 1.490418 4.473636
v 12.160912 1.404062 4.473636
v 12.247268 1.404062 4.559992
v 12.186204 1.465125 4.473636
v 12.197410 1.453920 4.523494
v 12.186204 1.404062 4.534699
v 12.247268 1.465125 4.534699
vt 0.497607 0.725262
vt 0.502393 0.858061
vt 0.497607 0.725262
vt 0.514526 0.552682
vt 0.498702 0.705255
vt 0.514526 0.552682
vt 0.749949 0.699369
vt 0.263886 0.607539
vt 0.458111 0.472321
vt 0.504379 -0.110378
vt 0.524724 0.177826
vt 0.504379 -0.110378
vt 0.525951 0.218482
vt 0.516379 0.523581
vt 0.525951 0.218482
vt 0.136936 0.731803
vt 0.130045 0.750000
vt 0.125000 0.731803
vt 0.428949 0.942972
vt 0.375000 0.988064
vt 0.375000 0.007691
vt 0.502646 -0.134929
vt 0.502393 0.858061
vt 0.630078 0.729261
vt 0.502646 0.865071
vt 0.547224 0.809087
vt 0.552284 0.825348
vt 0.530048 0.818716
vt 0.576342 -0.212830
vt 0.633758 -0.238952
vt 0.136936 0.518197
vt 0.125000 0.507691
vt 0.136936 0.500000
vt 0.439013 0.229873
vt 0.375000 0.231803
vt 0.375000 0.255045
vt 0.526457 0.202378
vt 0.776034 0.696709
vt 0.765264 0.711087
vt 0.613900 0.174883
vt 0.676903 0.175028
vt 0.524724 0.177826
vt 0.676448 0.141693
vt 0.526457 0.202378
vt 0.363064 0.731803
vt 0.392238 0.744645
vt 0.363064 0.750000
vt 0.375000 0.731803
vt 0.497354 0.718252
vt 0.238628 0.612683
vt 0.248841 0.596634
vt 0.567996 0.699922
vt 0.620214 0.688587
vt 0.498702 0.705255
vt 0.620848 0.683208
vt 0.497354 0.718252
vt 0.363064 0.518197
vt 0.393165 0.508155
vt 0.375000 0.518197
vt 0.375000 0.488064
vt 0.515874 0.539685
vt 0.452335 0.453913
vt 0.474750 0.461084
vt 0.597208 0.562597
vt 0.654052 0.587168
vt 0.516379 0.523581
vt 0.657175 0.570802
vt 0.515874 0.539685
vt 0.125000 0.518197
vt 0.375000 0.018197
vt 0.502646 0.865071
vt 0.502646 -0.134929
vt 0.562268 0.819992
vt 0.674447 0.123850
vt 0.363064 0.500000
vt 0.375000 0.261936
vt 0.767124 0.689741
vt 0.657759 0.559097
vt 0.442795 0.460603
vt 0.622405 0.678706
vt 0.136936 0.750000
vt 0.375000 0.761936
vt 0.247246 0.618776
vt 0.629786 0.728058
vn 0.0000 0.0000 1.0000
vn 0.0000 1.0000 0.0000
vn 0.3672 -0.8865 -0.2818
vn 0.2817 -0.3672 -0.8864
vn 0.8865 -0.2818 -0.3672
vn 0.3672 0.2817 -0.8865
vn 0.2817 0.8865 -0.3672
vn 0.8865 0.3672 -0.2818
vn 0.2817 -0.8865 0.3672
vn 0.8864 -0.3672 0.2818
vn 0.3672 -0.2817 0.8865
vn 0.3672 0.8864 0.2818
vn 0.2818 0.3672 0.8864
vn 0.8865 0.2817 0.3672
vn -0.2817 -0.8865 -0.3672
vn -0.8864 -0.3672 -0.2818
vn -0.3672 -0.2817 -0.8865
vn -0.3672 0.8864 -0.2818
vn -0.2817 0.3672 -0.8865
vn -0.8865 0.2817 -0.3672
vn -0.3672 -0.8865 0.2818
vn -0.2817 -0.3672 0.8865
vn -0.8864 -0.2818 0.3672
vn -0.2818 0.8865 0.3672
vn -0.8865 0.3672 0.2818
vn -0.3672 0.2817 0.8865
vn 0.3827 -0.9239 -0.0000
vn 0.9239 -0.3827 0.0000
vn 0.3827 0.9239 -0.0000
vn 0.9239 0.3827 0.0000
vn 0.0000 -0.9239 0.3827
vn 0.0000 -0.3827 0.9239
vn 0.0000 0.9239 0.3827
vn 0.0000 0.3827 0.9239
vn -0.3827 -0.9239 0.0000
vn -0.9239 -0.3827 0.0000
vn -0.3827 0.9239 0.0000
vn -0.9239 0.3827 0.0000
vn -0.0000 -0.9239 -0.3827
vn -0.0000 -0.3827 -0.9239
vn -0.0000 0.9239 -0.3827
vn -0.0000 0.3827 -0.9239
vn 0.0000 -1.0000 -0.0000
vn 0.2817 -0.8865 -0.3672
vn 0.3672 -0.2817 -0.8865
vn 0.8865 -0.3672 -0.2818
vn 0.2817 0.3672 -0.8864
vn 0.3672 0.8865 -0.2818
vn 0.8865 0.2818 -0.3672
vn 0.3672 -0.8864 0.2818
vn 0.8865 -0.2817 0.3672
vn 0.2818 -0.3672 0.8864
vn 0.2817 0.8865 0.3672
vn 0.3672 0.2817 0.8865
vn 0.8864 0.3672 0.2818
vn -0.3672 -0.8864 -0.2818
vn -0.8865 -0.2817 -0.3672
vn -0.2817 -0.3672 -0.8865
vn -0.2817 0.8865 -0.3672
vn -0.3672 0.2817 -0.8865
vn -0.8864 0.3672 -0.2818
vn -0.2818 -0.8865 0.3672
vn -0.3672 -0.2817 0.8865
vn -0.8865 -0.3672 0.2818
vn -0.3672 0.8865 0.2818
vn -0.8864 0.2818 0.3672
vn -0.2817 0.3672 0.8865
usemtl Materiais.014
s off
f 69/75/39 34/76/39 63/77/39
f 83/78/39 62/79/39 77/80/39
f 54/81/40 68/82/40 82/83/40
f 42/84/39 48/85/39 35/86/39
f 55/87/39 76/88/39 49/89/39
f 33/90/41 37/91/41 39/92/41
f 34/76/42 37/93/42 36/94/42
f 35/86/43 37/95/43 38/96/43
f 40/97/44 44/98/44 46/99/44
f 41/100/45 44/101/45 43/102/45
f 42/84/46 44/103/46 45/104/46
f 47/105/47 51/106/47 53/107/47
f 48/85/48 51/108/48 50/109/48
f 49/89/49 51/110/49 52/111/49
f 54/81/50 58/112/50 60/113/50
f 55/87/51 58/114/51 57/115/51
f 56/116/52 58/117/52 59/118/52
f 61/119/53 65/120/53 67/121/53
f 62/79/54 65/120/54 64/122/54
f 63/77/55 65/120/55 66/123/55
f 68/82/56 72/124/56 74/125/56
f 69/75/57 72/126/57 71/127/57
f 70/128/58 72/129/58 73/130/58
f 75/131/59 79/132/59 81/133/59
f 76/88/60 79/132/60 78/134/60
f 77/80/61 79/132/61 80/135/61
f 82/83/62 86/136/62 88/137/62
f 83/78/63 86/138/63 85/139/63
f 84/140/64 86/141/64 87/142/64
f 33/90/65 50/143/65 47/105/65
f 39/144/66 48/85/66 50/109/66
f 40/97/39 38/145/39 34/76/39
f 46/146/39 35/86/39 38/96/39
f 54/81/67 45/147/67 41/100/67
f 60/148/68 42/84/68 45/104/68
f 49/89/39 59/118/39 55/87/39
f 52/111/39 56/116/39 59/118/39
f 47/105/69 78/149/69 75/131/69
f 53/150/70 76/88/70 78/134/70
f 82/83/71 57/151/71 54/81/71
f 88/152/72 55/87/72 57/115/72
f 77/80/39 87/142/39 83/78/39
f 80/135/39 84/140/39 87/142/39
f 75/131/73 64/122/73 61/119/73
f 81/133/74 62/79/74 64/122/74
f 68/82/75 85/153/75 82/83/75
f 74/154/76 83/78/76 85/139/76
f 63/77/39 73/130/39 69/75/39
f 66/123/39 70/128/39 73/130/39
f 61/119/77 36/155/77 33/90/77
f 67/156/78 34/76/78 36/94/78
f 41/100/79 71/157/79 68/82/79
f 43/158/80 69/75/80 71/127/80
f 75/131/81 33/90/81 47/105/81
f 69/75/39 40/97/39 34/76/39
f 83/78/39 70/128/39 62/79/39
f 54/81/40 41/100/40 68/82/40
f 42/84/39 56/116/39 48/85/39
f 55/87/39 84/140/39 76/88/39
f 33/90/82 36/155/82 37/91/82
f 34/76/83 38/145/83 37/93/83
f 35/86/84 39/144/84 37/95/84
f 40/97/85 43/158/85 44/98/85
f 41/100/86 45/147/86 44/101/86
f 42/84/87 46/146/87 44/103/87
f 47/105/88 50/143/88 51/106/88
f 48/85/89 52/111/89 51/108/89
f 49/89/90 53/150/90 51/110/90
f 54/81/91 57/151/91 58/112/91
f 55/87/92 59/118/92 58/114/92
f 56/116/93 60/148/93 58/117/93
f 61/119/94 64/122/94 65/120/94
f 62/79/95 66/123/95 65/120/95
f 63/77/96 67/156/96 65/120/96
f 68/82/97 71/157/97 72/124/97
f 69/75/98 73/130/98 72/126/98
f 70/128/99 74/154/99 72/129/99
f 75/131/100 78/149/100 79/132/100
f 76/88/101 80/135/101 79/132/101
f 77/80/102 81/133/102 79/132/102
f 82/83/103 85/153/103 86/136/103
f 83/78/104 87/142/104 86/138/104
f 84/140/105 88/152/105 86/141/105
f 33/90/65 39/92/65 50/143/65
f 39/144/66 35/86/66 48/85/66
f 40/97/39 46/99/39 38/145/39
f 46/146/39 42/84/39 35/86/39
f 54/81/67 60/113/67 45/147/67
f 60/148/68 56/116/68 42/84/68
f 49/89/39 52/111/39 59/118/39
f 52/111/39 48/85/39 56/116/39
f 47/105/69 53/107/69 78/149/69
f 53/150/70 49/89/70 76/88/70
f 82/83/71 88/137/71 57/151/71
f 88/152/72 84/140/72 55/87/72
f 77/80/39 80/135/39 87/142/39
f 80/135/39 76/88/39 84/140/39
f 75/131/73 81/133/73 64/122/73
f 81/133/74 77/80/74 62/79/74
f 68/82/75 74/125/75 85/153/75
f 74/154/76 70/128/76 83/78/76
f 63/77/39 66/123/39 73/130/39
f 66/123/39 62/79/39 70/128/39
f 61/119/77 67/121/77 36/155/77
f 67/156/78 63/77/78 34/76/78
f 41/100/79 43/102/79 71/157/79
f 43/158/80 40/97/80 69/75/80
f 75/131/81 61/119/81 33/90/81
