# Blender v2.92.0 OBJ File: 'quarto.blend'
# www.blender.org
mtllib Janela1.mtl
o Cubo.040_Cubo.029
v 15.029646 3.647487 -1.792340
v 14.902783 3.648618 -1.792326
v 15.047571 5.657461 -1.792342
v 14.920709 5.658592 -1.792328
v 15.029916 3.647487 0.661901
v 14.903053 3.648618 0.661915
v 15.047841 5.657461 0.661899
v 14.920979 5.658592 0.661914
vt 0.450386 0.282557
vt 0.200386 0.532557
vt 0.200386 0.282557
vt 0.625000 0.250000
vt 0.375000 0.500000
vt 0.375000 0.250000
vt 0.625000 0.500000
vt 0.375000 0.750000
vt 0.431337 0.619833
vt 0.181337 0.869833
vt 0.181337 0.619833
vt 0.530556 0.870487
vt 0.886097 0.211409
vt 0.885313 0.871114
vt 0.885050 0.225045
vt 0.527236 0.873154
vt 0.527236 0.225045
vt 0.450386 0.532557
vt 0.625000 0.750000
vt 0.431337 0.869833
vt 0.531340 0.210781
vt 0.885050 0.873154
vn -0.0001 0.0000 -1.0000
vn 0.0089 1.0000 -0.0000
vn 0.0001 -0.0000 1.0000
vn -0.0089 -1.0000 0.0000
vn 1.0000 -0.0089 -0.0001
vn -1.0000 0.0089 0.0001
usemtl Materiais.020
s off
f 2/1/1 3/2/1 1/3/1
f 4/4/2 7/5/2 3/6/2
f 8/7/3 5/8/3 7/5/3
f 6/9/4 1/10/4 5/11/4
f 7/12/5 1/13/5 3/14/5
f 4/15/6 6/16/6 8/17/6
f 2/1/1 4/18/1 3/2/1
f 4/4/2 8/7/2 7/5/2
f 8/7/3 6/19/3 5/8/3
f 6/9/4 2/20/4 1/10/4
f 7/12/5 5/21/5 1/13/5
f 4/15/6 2/22/6 6/16/6
