# Blender v2.92.0 OBJ File: 'quarto.blend'
# www.blender.org
mtllib Janela2.mtl
o Cubo.041_Cubo.030
v 15.029642 3.647487 0.691319
v 14.902781 3.648618 0.691333
v 15.047568 5.657461 0.691317
v 14.920706 5.658592 0.691331
v 15.029919 3.647487 3.201024
v 14.903056 3.648618 3.201038
v 15.047844 5.657461 3.201022
v 14.920982 5.658592 3.201036
vt 0.459910 0.301606
vt 0.209910 0.551606
vt 0.209910 0.301606
vt 0.625000 0.250000
vt 0.375000 0.500000
vt 0.375000 0.250000
vt 0.625000 0.500000
vt 0.375000 0.750000
vt 0.450386 0.610309
vt 0.200386 0.860309
vt 0.200386 0.610309
vt 0.884010 0.216114
vt 0.528892 0.869600
vt 0.532891 0.213696
vt 0.526186 0.878384
vt 0.886100 0.219110
vt 0.883999 0.879523
vt 0.459910 0.551606
vt 0.625000 0.750000
vt 0.450386 0.860309
vt 0.880010 0.872019
vt 0.528287 0.217971
vn -0.0001 0.0000 -1.0000
vn 0.0089 1.0000 -0.0000
vn 0.0001 -0.0000 1.0000
vn -0.0089 -1.0000 0.0000
vn 1.0000 -0.0089 -0.0001
vn -1.0000 0.0089 0.0001
usemtl Materiais.020
s off
f 2/1/1 3/2/1 1/3/1
f 4/4/2 7/5/2 3/6/2
f 8/7/3 5/8/3 7/5/3
f 6/9/4 1/10/4 5/11/4
f 7/12/5 1/13/5 3/14/5
f 4/15/6 6/16/6 8/17/6
f 2/1/1 4/18/1 3/2/1
f 4/4/2 8/7/2 7/5/2
f 8/7/3 6/19/3 5/8/3
f 6/9/4 2/20/4 1/10/4
f 7/12/5 5/21/5 1/13/5
f 4/15/6 2/22/6 6/16/6
