# Blender v2.92.0 OBJ File: 'quarto.blend'
# www.blender.org
mtllib PC.mtl
o Cubo.010_Cubo.011
v -0.596171 2.031844 -2.105896
v -0.596171 3.227618 -2.105896
v -0.596171 2.031844 -2.721575
v -0.596171 3.227618 -2.721575
v 1.006190 2.031844 -2.105896
v 1.006190 3.227618 -2.105896
v 1.006190 2.031844 -2.721575
v 1.006190 3.227618 -2.721575
vt 0.737376 0.929059
vt 0.305806 0.144273
vt 0.669403 0.146484
vt 0.900787 -0.009921
vt 0.104173 0.900787
vt 0.000000 0.000000
vt 0.241496 0.926849
vt 1.092598 1.000000
vt 1.008018 0.172199
vt -0.008018 0.996952
vt 0.112265 0.065444
vt 0.991908 1.004494
vn 1.0000 0.0000 0.0000
vn 0.0000 -1.0000 0.0000
vn -1.0000 0.0000 0.0000
usemtl Materiais.015
s off
f 8/1/1 5/2/1 7/3/1
f 7/4/2 1/5/2 3/6/2
f 8/1/1 6/7/1 5/2/1
f 7/4/2 5/8/2 1/5/2
usemtl Material.003
f 2/9/3 3/10/3 1/11/3
f 2/9/3 4/12/3 3/10/3
o Cubo.042_Cubo.035
v -0.596171 2.031844 -2.721575
v -0.596171 3.227618 -2.721575
v 1.006190 2.031844 -2.721575
v 1.006190 3.227618 -2.721575
vt 0.989916 0.698405
vt 0.116747 0.152776
vt 0.909855 0.146903
vt 0.031453 0.704278
vn 0.0000 0.0000 -1.0000
usemtl Materiais.016
s off
f 10/13/4 11/14/4 9/15/4
f 10/13/4 12/16/4 11/14/4
o Cubo.043_Cubo.036
v -0.596171 2.031844 -2.105896
v -0.596171 3.227618 -2.105896
v 1.006190 2.031844 -2.105896
v 1.006190 3.227618 -2.105896
vt 0.957343 0.971456
vt 0.139765 0.039685
vt 0.846221 -0.006614
vt 0.019843 0.971456
vn 0.0000 0.0000 1.0000
usemtl Materiais.007
s off
f 16/17/5 13/18/5 15/19/5
f 16/17/5 14/20/5 13/18/5
o Cubo.044
v -0.596171 3.227618 -2.105896
v -0.596171 3.227618 -2.721575
v 1.006190 3.227618 -2.105896
v 1.006190 3.227618 -2.721575
vt 0.720804 0.941594
vt 0.294996 0.055837
vt 0.743332 0.065127
vt 0.296353 0.941935
vn 0.0000 1.0000 0.0000
usemtl Materiais.008
s off
f 18/21/6 19/22/6 20/23/6
f 18/21/6 17/24/6 19/22/6
