# Blender v2.92.0 OBJ File: 'quarto.blend'
# www.blender.org
mtllib prateleira.mtl
o Cubo.013_Cubo.002
v -1.598689 3.758851 -0.772617
v -0.840868 3.758851 -0.772617
v -1.598689 3.697725 -0.772617
v -0.840868 3.697725 -0.772617
v -1.598690 3.758851 2.756656
v -0.840869 3.758851 2.756656
v -1.598690 3.697725 2.756656
v -0.840869 3.697725 2.756656
vt 0.625000 0.250000
vt 0.375000 0.500000
vt 0.375000 0.250000
vt 0.625000 0.750000
vt 0.375000 1.000000
vt 0.375000 0.750000
vt 0.625000 0.500000
vt 0.625000 1.000000
vt 0.625000 0.000000
vt 0.375000 0.000000
vt 0.125000 0.750000
vt 0.125000 0.500000
vt 0.875000 0.500000
vt 0.875000 0.750000
vn 0.0000 -1.0000 -0.0000
vn 0.0000 1.0000 0.0000
vn 0.0000 0.0000 -1.0000
vn 0.0000 0.0000 1.0000
vn -1.0000 0.0000 -0.0000
vn 1.0000 0.0000 0.0000
usemtl Materiais.003
s off
f 4/1/1 7/2/1 3/3/1
f 6/4/2 1/5/2 5/6/2
f 4/1/1 8/7/1 7/2/1
f 6/4/2 2/8/2 1/5/2
usemtl Material.005
f 2/9/3 3/3/3 1/10/3
f 8/7/4 5/6/4 7/2/4
f 7/2/5 1/11/5 3/12/5
f 4/13/6 6/4/6 8/7/6
f 2/9/3 4/1/3 3/3/3
f 8/7/4 6/4/4 5/6/4
f 7/2/5 5/6/5 1/11/5
f 4/13/6 2/14/6 6/4/6
o Cubo.014
v -1.600325 3.697725 -0.582036
v -1.600325 3.693194 -0.582036
v -1.600325 3.697725 -0.555072
v -1.600325 3.693194 -0.555072
v -1.102216 3.697725 -0.582036
v -1.102216 3.693194 -0.582036
v -1.102216 3.697725 -0.555072
v -1.102216 3.693194 -0.555072
vt 0.625000 0.000000
vt 0.375000 0.250000
vt 0.375000 0.000000
vt 0.625000 0.250000
vt 0.375000 0.500000
vt 0.625000 0.500000
vt 0.375000 0.750000
vt 0.625000 0.750000
vt 0.375000 1.000000
vt 0.125000 0.750000
vt 0.125000 0.500000
vt 0.875000 0.500000
vt 0.625000 1.000000
vt 0.875000 0.750000
vn -1.0000 0.0000 0.0000
vn 0.0000 0.0000 1.0000
vn 1.0000 0.0000 0.0000
vn -0.0000 0.0000 -1.0000
vn 0.0000 1.0000 0.0000
vn -0.0000 -1.0000 0.0000
usemtl None
s off
f 10/15/7 11/16/7 9/17/7
f 12/18/8 15/19/8 11/16/8
f 16/20/9 13/21/9 15/19/9
f 14/22/10 9/23/10 13/21/10
f 15/19/11 9/24/11 11/25/11
f 12/26/12 14/22/12 16/20/12
f 10/15/7 12/18/7 11/16/7
f 12/18/8 16/20/8 15/19/8
f 16/20/9 14/22/9 13/21/9
f 14/22/10 10/27/10 9/23/10
f 15/19/11 13/21/11 9/24/11
f 12/26/12 10/28/12 14/22/12
o Cubo.015
v -1.600325 3.697725 2.481362
v -1.600325 3.693194 2.481362
v -1.600325 3.697725 2.508326
v -1.600325 3.693194 2.508326
v -1.102216 3.697725 2.481362
v -1.102216 3.693194 2.481362
v -1.102216 3.697725 2.508327
v -1.102216 3.693194 2.508327
vt 0.625000 0.000000
vt 0.375000 0.250000
vt 0.375000 0.000000
vt 0.625000 0.250000
vt 0.375000 0.500000
vt 0.625000 0.500000
vt 0.375000 0.750000
vt 0.625000 0.750000
vt 0.375000 1.000000
vt 0.125000 0.750000
vt 0.125000 0.500000
vt 0.875000 0.500000
vt 0.625000 1.000000
vt 0.875000 0.750000
vn -1.0000 0.0000 0.0000
vn -0.0000 0.0000 1.0000
vn 1.0000 0.0000 0.0000
vn 0.0000 0.0000 -1.0000
vn 0.0000 1.0000 0.0000
vn -0.0000 -1.0000 0.0000
usemtl None
s off
f 18/29/13 19/30/13 17/31/13
f 20/32/14 23/33/14 19/30/14
f 24/34/15 21/35/15 23/33/15
f 22/36/16 17/37/16 21/35/16
f 23/33/17 17/38/17 19/39/17
f 20/40/18 22/36/18 24/34/18
f 18/29/13 20/32/13 19/30/13
f 20/32/14 24/34/14 23/33/14
f 24/34/15 22/36/15 21/35/15
f 22/36/16 18/41/16 17/37/16
f 23/33/17 21/35/17 17/38/17
f 20/40/18 18/42/18 22/36/18
o Cubo.016
v -1.591786 3.699414 -0.582185
v -1.596317 3.699404 -0.582182
v -1.591770 3.699430 -0.555221
v -1.596301 3.699421 -0.555218
v -1.590772 3.201306 -0.581890
v -1.595302 3.201297 -0.581887
v -1.590756 3.201322 -0.554926
v -1.595286 3.201313 -0.554923
vt 0.625000 0.000000
vt 0.375000 0.250000
vt 0.375000 0.000000
vt 0.625000 0.250000
vt 0.375000 0.500000
vt 0.625000 0.500000
vt 0.375000 0.750000
vt 0.625000 0.750000
vt 0.375000 1.000000
vt 0.125000 0.750000
vt 0.125000 0.500000
vt 0.875000 0.500000
vt 0.625000 1.000000
vt 0.875000 0.750000
vn -0.0021 1.0000 -0.0006
vn 0.0006 0.0006 1.0000
vn 0.0021 -1.0000 0.0006
vn -0.0006 -0.0006 -1.0000
vn 1.0000 0.0020 -0.0006
vn -1.0000 -0.0020 0.0006
vn -0.0020 1.0000 -0.0006
vn 0.0020 -1.0000 0.0006
usemtl None
s off
f 26/43/19 27/44/19 25/45/19
f 28/46/20 31/47/20 27/44/20
f 32/48/21 29/49/21 31/47/21
f 30/50/22 25/51/22 29/49/22
f 31/47/23 25/52/23 27/53/23
f 28/54/24 30/50/24 32/48/24
f 26/43/25 28/46/25 27/44/25
f 28/46/20 32/48/20 31/47/20
f 32/48/26 30/50/26 29/49/26
f 30/50/22 26/55/22 25/51/22
f 31/47/23 29/49/23 25/52/23
f 28/54/24 26/56/24 30/50/24
o Cubo.017
v -1.591786 3.699414 2.482092
v -1.596317 3.699404 2.482095
v -1.591770 3.699430 2.509057
v -1.596301 3.699421 2.509059
v -1.590772 3.201306 2.482388
v -1.595302 3.201297 2.482390
v -1.590756 3.201322 2.509352
v -1.595286 3.201313 2.509355
vt 0.625000 0.000000
vt 0.375000 0.250000
vt 0.375000 0.000000
vt 0.625000 0.250000
vt 0.375000 0.500000
vt 0.625000 0.500000
vt 0.375000 0.750000
vt 0.625000 0.750000
vt 0.375000 1.000000
vt 0.125000 0.750000
vt 0.125000 0.500000
vt 0.875000 0.500000
vt 0.625000 1.000000
vt 0.875000 0.750000
vn -0.0021 1.0000 -0.0006
vn 0.0006 0.0006 1.0000
vn 0.0021 -1.0000 0.0006
vn -0.0005 -0.0006 -1.0000
vn 1.0000 0.0020 -0.0006
vn -1.0000 -0.0020 0.0006
vn -0.0020 1.0000 -0.0006
vn 0.0020 -1.0000 0.0006
vn -0.0006 -0.0006 -1.0000
usemtl None
s off
f 34/57/27 35/58/27 33/59/27
f 36/60/28 39/61/28 35/58/28
f 40/62/29 37/63/29 39/61/29
f 38/64/30 33/65/30 37/63/30
f 39/61/31 33/66/31 35/67/31
f 36/68/32 38/64/32 40/62/32
f 34/57/33 36/60/33 35/58/33
f 36/60/28 40/62/28 39/61/28
f 40/62/34 38/64/34 37/63/34
f 38/64/35 34/69/35 33/65/35
f 39/61/31 37/63/31 33/66/31
f 36/68/32 34/70/32 38/64/32
o Cubo.018
v -1.250927 3.713333 2.495233
v -1.251026 3.713420 2.499761
v -1.231974 3.694169 2.496016
v -1.232073 3.694256 2.500545
v -1.605065 3.363051 2.494227
v -1.605164 3.363138 2.498756
v -1.586112 3.343887 2.495011
v -1.586211 3.343974 2.499540
vt 0.625000 0.000000
vt 0.375000 0.250000
vt 0.375000 0.000000
vt 0.625000 0.250000
vt 0.375000 0.500000
vt 0.625000 0.500000
vt 0.375000 0.750000
vt 0.625000 0.750000
vt 0.375000 1.000000
vt 0.125000 0.750000
vt 0.125000 0.500000
vt 0.875000 0.500000
vt 0.625000 1.000000
vt 0.875000 0.750000
vn 0.7109 0.7033 0.0021
vn 0.7029 -0.7107 0.0289
vn -0.7109 -0.7033 -0.0021
vn -0.7029 0.7107 -0.0291
vn 0.0219 -0.0192 -0.9996
vn -0.0219 0.0192 0.9996
vn 0.7109 0.7033 0.0020
vn 0.7029 -0.7107 0.0291
vn -0.7110 -0.7032 -0.0020
vn -0.7029 0.7107 -0.0290
usemtl Materiais.003
s off
f 42/71/36 43/72/36 41/73/36
f 44/74/37 47/75/37 43/72/37
f 48/76/38 45/77/38 47/75/38
f 46/78/39 41/79/39 45/77/39
f 47/75/40 41/80/40 43/81/40
f 44/82/41 46/78/41 48/76/41
f 42/71/42 44/74/42 43/72/42
f 44/74/43 48/76/43 47/75/43
f 48/76/44 46/78/44 45/77/44
f 46/78/45 42/83/45 41/79/45
f 47/75/40 45/77/40 41/80/40
f 44/82/41 42/84/41 46/78/41
o Cubo.019
v -1.250927 3.713333 -0.571117
v -1.251026 3.713420 -0.566589
v -1.231974 3.694169 -0.570334
v -1.232073 3.694256 -0.565805
v -1.605065 3.363051 -0.572123
v -1.605164 3.363138 -0.567594
v -1.586112 3.343887 -0.571339
v -1.586211 3.343974 -0.566810
vt 0.625000 0.000000
vt 0.375000 0.250000
vt 0.375000 0.000000
vt 0.625000 0.250000
vt 0.375000 0.500000
vt 0.625000 0.500000
vt 0.375000 0.750000
vt 0.625000 0.750000
vt 0.375000 1.000000
vt 0.125000 0.750000
vt 0.125000 0.500000
vt 0.875000 0.500000
vt 0.625000 1.000000
vt 0.875000 0.750000
vn 0.7110 0.7032 0.0021
vn 0.7029 -0.7107 0.0289
vn -0.7110 -0.7032 -0.0021
vn -0.7029 0.7107 -0.0291
vn 0.0219 -0.0192 -0.9996
vn -0.0219 0.0192 0.9996
vn 0.7110 0.7032 0.0020
vn 0.7029 -0.7107 0.0291
vn -0.7110 -0.7032 -0.0020
vn -0.7029 0.7107 -0.0290
usemtl Materiais.003
s off
f 50/85/46 51/86/46 49/87/46
f 52/88/47 55/89/47 51/86/47
f 56/90/48 53/91/48 55/89/48
f 54/92/49 49/93/49 53/91/49
f 55/89/50 49/94/50 51/95/50
f 52/96/51 54/92/51 56/90/51
f 50/85/52 52/88/52 51/86/52
f 52/88/53 56/90/53 55/89/53
f 56/90/54 54/92/54 53/91/54
f 54/92/55 50/97/55 49/93/55
f 55/89/50 53/91/50 49/94/50
f 52/96/51 50/98/51 54/92/51
