# Blender v2.92.0 OBJ File: 'quarto.blend'
# www.blender.org
mtllib Quadro.mtl
o Cubo.049
v -1.575485 4.893929 1.142933
v -1.508911 4.893929 1.142933
v -1.575485 7.041066 1.142933
v -1.508910 7.041066 1.142933
v -1.575485 4.893929 -1.979408
v -1.508911 4.893929 -1.979408
v -1.575485 7.041066 -1.979408
v -1.508911 7.041066 -1.979408
vt 0.625000 0.000000
vt 0.375000 0.250000
vt 0.375000 0.000000
vt 0.625000 0.250000
vt 0.375000 0.500000
vt 0.625000 0.500000
vt 0.375000 0.750000
vt 0.625000 0.750000
vt 0.375000 1.000000
vt 0.125000 0.750000
vt 0.125000 0.500000
vt 0.014325 1.002396
vt 0.984416 -0.009598
vt 0.977331 1.005543
vt 0.625000 1.000000
vt 0.021410 -0.012745
vn 0.0000 0.0000 1.0000
vn 0.0000 1.0000 -0.0000
vn 0.0000 0.0000 -1.0000
vn 0.0000 -1.0000 -0.0000
vn -1.0000 0.0000 0.0000
vn 1.0000 -0.0000 -0.0000
usemtl Materiais.025
s off
f 2/1/1 3/2/1 1/3/1
f 4/4/2 7/5/2 3/2/2
f 8/6/3 5/7/3 7/5/3
f 6/8/4 1/9/4 5/7/4
f 7/5/5 1/10/5 3/11/5
f 4/12/6 6/13/6 8/14/6
f 2/1/1 4/4/1 3/2/1
f 4/4/2 8/6/2 7/5/2
f 8/6/3 6/8/3 5/7/3
f 6/8/4 2/15/4 1/9/4
f 7/5/5 5/7/5 1/10/5
f 4/12/6 2/16/6 6/13/6
