# Blender v2.92.0 OBJ File: 'quarto.blend'
# www.blender.org
mtllib quartoNew.mtl
o Cube.005
v -1.740232 -0.141576 8.395105
v -1.740232 9.680502 8.395105
v -1.740232 -0.141576 -8.395105
v -1.740232 9.680502 -8.395105
v 15.049979 -0.141576 8.395105
v 15.049979 9.680502 8.395105
v 15.049979 -0.141576 -8.395105
v 15.049979 9.680502 -8.395105
v 3.042427 -0.141576 -8.395105
v -0.224524 -0.141576 -8.395105
v 3.067495 5.592068 -8.395105
v -0.202417 5.600280 -8.395105
v -1.740232 -0.141576 5.154840
v -1.740232 -0.141576 7.630703
v -1.740232 5.649428 5.150956
v -1.740232 5.639472 7.651920
v 15.049979 3.663080 3.232808
v 15.049979 3.657557 -1.804211
v 15.049979 5.709915 -1.770310
v 15.049979 5.700092 3.205392
v 15.049979 3.663143 3.228659
v -1.740232 0.983982 4.960649
v -1.740232 0.920040 -6.308245
v -1.740232 5.665981 -6.199279
v -1.740232 5.667809 4.866159
v -1.740232 0.984119 4.984942
v -1.621511 -0.141576 8.276384
v -1.643293 9.596294 8.298167
v -1.621511 -0.141576 -8.276384
v -1.643293 9.596294 -8.298167
v 14.931253 -0.141576 8.276384
v 14.953041 9.596294 8.298167
v 14.931258 -0.141576 -8.276384
v 14.953041 9.596294 -8.298167
v 3.042427 -0.141576 -8.227203
v -0.224524 -0.141576 -8.227203
v 3.067495 5.592068 -8.227208
v -0.202417 5.600280 -8.227203
v -1.572334 -0.141576 5.154840
v -1.572330 -0.141576 7.630703
v -1.572334 5.649428 5.150956
v -1.572330 5.639472 7.651920
v 14.882082 3.663080 3.232684
v 14.882077 3.657557 -1.804211
v 14.882077 5.709915 -1.770310
v 14.882077 5.700092 3.205392
v 15.049979 3.663143 3.060757
v -1.572330 0.983982 4.960649
v -1.572330 0.920040 -6.308245
v -1.572330 5.665981 -6.199279
v -1.572330 5.667809 4.866159
v -1.572330 0.984119 4.984942
vt 0.375000 0.750000
vt 0.439830 0.663901
vt 0.439831 0.664063
vt 0.375000 0.750000
vt 0.439831 0.664063
vt 0.439830 0.663901
vt 9.026139 0.000000
vt 3.595195 1.878728
vt 3.583819 1.727107
vt 0.297039 -0.297719
vt 1.102882 7.187644
vt 0.248500 7.060838
vt 1.906341 4.195349
vt -1.032111 -1.788706
vt 1.906341 -1.866517
vt 0.696472 1.828428
vt 3.595195 1.878728
vt 3.583819 1.727107
vt 0.248500 7.060838
vt 1.102882 7.187644
vt 0.297039 -0.297719
vt 1.906341 4.195349
vt -1.032111 -1.788706
vt -0.994364 4.163468
vt 0.000041 0.406948
vt 0.000041 0.000002
vt 0.000041 0.000002
vt 1.102882 -1.660429
vt 0.000201 1.679129
vt 3.577659 0.395651
vt 3.577659 0.395651
vt 0.000041 0.406948
vt 9.026138 8.938719
vt 0.000000 8.938719
vt 3.594063 7.769711
vt 0.656991 7.827724
vt 0.695645 1.778500
vt 0.696472 1.828428
vt 1.102882 -1.660429
vt 0.248395 7.076701
vt -0.994364 4.163468
vt 9.026139 0.000000
vt 0.656991 7.827724
vt 0.000000 8.938719
vt 3.594063 7.769711
vt 9.026138 8.938719
vt 0.000201 1.679129
vt 0.695645 1.778500
vt 0.248395 7.076701
vt 1.906341 -1.866517
vt 1.000000 0.990316
vt 0.713659 0.389310
vt 0.908410 0.389868
vt 0.625000 0.750000
vt 0.375000 1.000000
vt 0.875000 0.500000
vt 0.625000 0.500000
vt 1.000000 0.990316
vt 0.908410 0.389868
vt 0.713659 0.389310
vt 0.625000 1.000000
vt 0.625000 0.750000
vt 0.875000 0.500000
vt 0.625000 0.500000
vt 0.909726 0.000000
vt 1.000000 0.000000
vt 1.000000 0.000000
vt 0.715152 0.000002
vt 0.000000 0.000002
vt 0.715152 0.000002
vt 0.909726 0.000000
vt 0.000000 0.990316
vt 0.000000 0.000002
vt 0.625000 1.000000
vt 0.875000 0.750000
vt 0.000000 0.990316
vt 0.375000 1.000000
vt 0.875000 0.750000
vt 0.439337 0.588452
vt 0.375000 0.500000
vt 0.394563 0.598804
vt 0.000000 0.000000
vt 1.000000 0.000000
vt 0.439337 0.588452
vt 0.375000 0.500000
vt 0.690908 0.599477
vt 0.692541 0.739141
vt 1.000000 0.000000
vt 0.392544 0.739520
vt 0.392544 0.739520
vt 0.690908 0.599477
vt 0.394563 0.598804
vt 1.000000 1.000000
vt 0.687904 0.744439
vt 0.692541 0.739141
vt 0.000000 1.000000
vt 0.687904 0.744439
vt 1.000000 1.000000
vt 0.000000 0.000000
vt 0.000000 1.000000
vn -1.0000 -0.0001 0.0000
vn 0.5223 0.6832 0.5103
vn -1.0000 -0.0000 0.0000
vn 1.0000 0.0000 0.0000
vn 0.0000 -1.0000 0.0000
vn 0.0000 0.0007 1.0000
vn 0.0000 -1.0000 -0.0040
vn 0.0000 0.0037 -1.0000
vn 0.9953 0.0020 0.0970
vn 0.9971 -0.0003 0.0759
vn 0.9997 0.0006 -0.0253
vn 0.9996 0.0022 -0.0297
vn 0.9998 0.0181 0.0000
vn 0.9998 0.0179 0.0001
vn 0.9999 0.0171 0.0011
vn 0.9992 -0.0395 -0.0037
vn 0.0000 0.0000 -1.0000
vn 0.0000 0.0000 1.0000
vn 0.0000 1.0000 0.0000
vn 0.0000 0.0178 0.9998
vn 0.0000 0.0022 -1.0000
vn -1.0000 0.0044 0.0000
vn -0.0025 -1.0000 0.0000
vn 1.0000 -0.0039 0.0000
vn -0.0433 0.0021 0.9991
vn -0.0352 0.0001 0.9994
vn 0.0052 0.0022 1.0000
vn 0.0000 0.0177 0.9998
vn 0.0041 -0.0000 1.0000
vn -0.9999 -0.0129 -0.0000
vn -0.9999 0.0002 0.0138
vn 0.0000 1.0000 -0.0011
vn 0.0000 -0.0165 0.9999
vn 0.0000 -1.0000 -0.0020
vn 0.0000 -0.0134 -0.9999
vn 1.0000 0.0001 0.0000
vn -0.5223 -0.6832 -0.5103
vn -1.0000 0.0022 -0.0089
vn -0.9999 0.0002 -0.0108
vn -0.9999 0.0022 0.0114
vn -0.9998 0.0183 0.0000
vn -0.9998 0.0182 0.0000
vn 0.0007 -0.0135 -0.9999
usemtl Materiais
s off
f 5/1/1 17/2/1 21/3/1
f 31/4/2 47/5/2 43/6/2
usemtl Materiais.002
f 2/7/3 25/8/3 15/9/3
f 23/10/3 13/11/3 22/12/3
f 22/13/3 24/14/3 23/15/3
f 48/16/4 51/17/4 41/18/4
f 48/19/4 39/20/4 49/21/4
f 48/22/4 50/23/4 51/24/4
f 14/25/5 27/26/5 1/27/5
f 13/11/5 29/28/5 39/20/5
f 13/29/6 41/18/6 15/9/6
f 15/9/7 42/30/7 16/31/7
f 16/31/8 40/32/8 14/25/8
f 14/25/3 1/27/3 16/31/3
f 1/27/3 2/7/3 16/31/3
f 4/33/3 3/34/3 24/35/3
f 3/34/3 23/36/3 24/35/3
f 26/37/3 13/29/3 15/9/3
f 15/9/3 16/31/3 2/7/3
f 2/7/3 4/33/3 25/8/3
f 4/33/3 24/35/3 25/8/3
f 25/8/3 22/38/3 15/9/3
f 22/38/3 26/37/3 15/9/3
f 3/39/3 13/11/3 23/10/3
f 13/11/3 26/40/3 22/12/3
f 22/13/3 25/41/3 24/14/3
f 28/42/9 27/26/9 42/30/9
f 27/26/10 40/32/10 42/30/10
f 49/43/11 29/44/11 50/45/11
f 29/44/12 30/46/12 50/45/12
f 30/46/13 28/42/13 51/17/13
f 28/42/14 42/30/14 41/18/14
f 41/18/4 39/47/4 52/48/4
f 28/42/15 41/18/15 51/17/15
f 51/17/13 50/45/13 30/46/13
f 52/48/4 48/16/4 41/18/4
f 52/49/4 39/20/4 48/19/4
f 39/20/16 29/28/16 49/21/16
f 48/22/4 49/50/4 50/23/4
f 14/25/5 40/32/5 27/26/5
f 13/11/5 3/39/5 29/28/5
f 13/29/6 39/47/6 41/18/6
f 15/9/7 41/18/7 42/30/7
f 16/31/8 42/30/8 40/32/8
usemtl Materiais.003
f 4/51/17 11/52/17 12/53/17
f 6/54/18 1/55/18 5/1/18
f 4/56/19 6/54/19 8/57/19
f 30/58/20 38/59/20 37/60/20
f 31/4/21 28/61/21 32/62/21
f 32/62/5 30/63/5 34/64/5
f 10/65/5 29/66/5 3/67/5
f 1/55/5 31/4/5 5/1/5
f 9/68/5 33/69/5 35/70/5
f 9/68/22 37/60/22 11/52/22
f 11/52/23 38/59/23 12/53/23
f 12/53/24 36/71/24 10/65/24
f 10/65/17 3/67/17 12/53/17
f 3/67/17 4/51/17 12/53/17
f 4/51/17 8/72/17 11/52/17
f 8/72/17 7/73/17 11/52/17
f 7/73/17 9/68/17 11/52/17
f 6/54/18 2/74/18 1/55/18
f 4/56/19 2/75/19 6/54/19
f 30/58/25 29/66/25 38/59/25
f 29/66/26 36/71/26 38/59/26
f 33/69/27 34/76/27 37/60/27
f 34/76/28 30/58/28 37/60/28
f 37/60/29 35/70/29 33/69/29
f 31/4/21 27/77/21 28/61/21
f 32/62/5 28/78/5 30/63/5
f 10/65/5 36/71/5 29/66/5
f 1/55/5 27/77/5 31/4/5
f 9/68/5 7/73/5 33/69/5
f 9/68/22 35/70/22 37/60/22
f 11/52/23 37/60/23 38/59/23
f 12/53/24 38/59/24 36/71/24
usemtl Materiais.004
f 18/79/4 5/1/4 7/80/4
f 19/81/4 8/82/4 6/83/4
f 31/4/30 44/84/30 33/85/30
f 46/86/31 43/87/31 32/88/31
f 5/1/5 33/85/5 7/80/5
f 18/79/32 43/6/32 17/2/32
f 19/81/33 44/89/33 18/90/33
f 20/91/34 45/92/34 19/81/34
f 20/91/35 43/87/35 46/86/35
f 18/79/4 17/2/4 5/1/4
f 5/93/36 21/94/36 17/95/36
f 5/93/4 17/95/4 20/91/4
f 18/90/4 7/96/4 19/81/4
f 7/96/4 8/82/4 19/81/4
f 6/83/4 5/93/4 20/91/4
f 20/91/4 19/81/4 6/83/4
f 31/4/30 43/6/30 44/84/30
f 43/87/37 47/97/37 31/98/37
f 34/99/38 33/100/38 44/89/38
f 34/99/39 44/89/39 45/92/39
f 43/87/40 31/98/40 32/88/40
f 34/99/41 45/92/41 32/88/41
f 45/92/42 46/86/42 32/88/42
f 5/1/5 31/4/5 33/85/5
f 18/79/32 44/84/32 43/6/32
f 19/81/33 45/92/33 44/89/33
f 20/91/34 46/86/34 45/92/34
f 20/91/43 17/95/43 43/87/43
o Cube.038_Cube.020
v -1.740232 -0.172846 8.395105
v -1.740232 -0.172846 -8.395105
v 15.049979 -0.172846 8.395105
v 15.049979 -0.172846 -8.395105
v 3.042427 -0.172846 -8.395105
v -0.224524 -0.172846 -8.395105
v -1.740232 -0.172846 5.154840
v -1.740232 -0.172846 7.630703
v -1.740232 -0.026995 8.395105
v -1.740232 -0.026995 -8.395105
v 15.049979 -0.026995 8.395105
v 15.049979 -0.026995 -8.395105
v 3.042427 -0.026995 -8.395105
v -0.224524 -0.026995 -8.395105
v -1.740232 -0.026995 5.154840
v -1.740232 -0.026995 7.630703
vt 0.896568 0.000000
vt 4.645779 1.323341
vt 0.000000 4.645779
vt 0.000000 4.645779
vt 4.645779 4.645779
vt 4.645779 1.323341
vt 0.000000 0.000000
vt 0.211507 0.000000
vt 0.211507 0.000000
vt 4.645779 0.000001
vt 4.645779 0.419390
vt 4.645779 0.419390
vt 4.645779 4.645779
vt 0.000000 0.000000
vt 4.645779 0.000001
vt 0.896568 0.000000
vn 0.0000 -1.0000 0.0000
vn 0.0000 1.0000 0.0000
vn -1.0000 0.0000 0.0000
vn 0.0000 0.0000 -1.0000
vn 1.0000 0.0000 0.0000
vn 0.0000 0.0000 1.0000
usemtl Materiais.001
s off
f 59/101/44 57/102/44 55/103/44
f 63/104/45 64/105/45 65/106/45
f 53/107/46 68/108/46 60/109/46
f 54/110/47 66/111/47 58/112/47
f 56/113/48 63/104/48 55/103/48
f 55/103/49 61/114/49 53/107/49
f 57/102/47 64/105/47 56/113/47
f 58/112/47 65/106/47 57/102/47
f 59/101/46 62/115/46 54/110/46
f 60/109/46 67/116/46 59/101/46
f 59/101/44 54/110/44 58/112/44
f 57/102/44 56/113/44 55/103/44
f 59/101/44 58/112/44 57/102/44
f 55/103/44 53/107/44 60/109/44
f 60/109/44 59/101/44 55/103/44
f 66/111/45 62/115/45 67/116/45
f 68/108/45 61/114/45 63/104/45
f 66/111/45 67/116/45 65/106/45
f 67/116/45 68/108/45 63/104/45
f 65/106/45 67/116/45 63/104/45
f 53/107/46 61/114/46 68/108/46
f 54/110/47 62/115/47 66/111/47
f 56/113/48 64/105/48 63/104/48
f 55/103/49 63/104/49 61/114/49
f 57/102/47 65/106/47 64/105/47
f 58/112/47 66/111/47 65/106/47
f 59/101/46 67/116/46 62/115/46
f 60/109/46 68/108/46 67/116/46
